<svg xmlns="http://www.w3.org/2000/svg" viewBox="0 0 32 32">
  <defs>
    <linearGradient id="bg" x1="0%" y1="0%" x2="100%" y2="100%">
      <stop offset="0%" stop-color="#667eea"/>
      <stop offset="100%" stop-color="#764ba2"/>
    </linearGradient>
    <linearGradient id="s" x1="0%" y1="0%" x2="100%" y2="100%">
      <stop offset="0%" stop-color="white" stop-opacity="0.5"/>
      <stop offset="50%" stop-color="white" stop-opacity="1"/>
      <stop offset="100%" stop-color="white" stop-opacity="0.6"/>
    </linearGradient>
  </defs>
  <rect width="32" height="32" rx="8" fill="url(#bg)"/>
  <path d="M8 20 C8 13, 13 10, 16 10 C19.5 10, 19.5 14.5, 16 16.5 C12.5 18.5, 12.5 23, 16 23 C20 23, 24 18, 24 12" fill="none" stroke="url(#s)" stroke-width="2.8" stroke-linecap="round"/>
  <path d="M8 20 C8 13, 13 10, 16 10 C19.5 10, 19.5 14.5, 16 16.5 C12.5 18.5, 12.5 23, 16 23 C20 23, 24 18, 24 12" fill="none" stroke="white" stroke-width="5" stroke-linecap="round" stroke-opacity="0.1"/>
</svg>
